<svg id="eigXeLHoQjY1" xmlns="http://www.w3.org/2000/svg" xmlns:xlink="http://www.w3.org/1999/xlink" viewBox="0 0 500 500" shape-rendering="geometricPrecision" text-rendering="geometricPrecision">
<defs><linearGradient id="eigXeLHoQjY2-fill" x1="397.5" y1="42.5" x2="92.5" y2="440" spreadMethod="pad" gradientUnits="userSpaceOnUse" gradientTransform="translate(0 0)"><stop id="eigXeLHoQjY2-fill-0" offset="0%" stop-color="#5bcbf2"/><stop id="eigXeLHoQjY2-fill-1" offset="100%" stop-color="#506eb5"/></linearGradient><linearGradient id="eigXeLHoQjY4-fill" x1="0.5" y1="1.155902" x2="1" y2="0" spreadMethod="pad" gradientUnits="objectBoundingBox" gradientTransform="translate(0 0)"><stop id="eigXeLHoQjY4-fill-0" offset="0%" stop-color="#506eb5"/><stop id="eigXeLHoQjY4-fill-1" offset="100%" stop-color="#5bcbf2"/></linearGradient><linearGradient id="eigXeLHoQjY5-fill" x1="0.5" y1="1" x2="1" y2="0" spreadMethod="pad" gradientUnits="objectBoundingBox" gradientTransform="translate(0 0)"><stop id="eigXeLHoQjY5-fill-0" offset="0%" stop-color="#506eb5"/><stop id="eigXeLHoQjY5-fill-1" offset="100%" stop-color="#5bcbf2"/></linearGradient></defs><g id="eigXeLHoQjY2_tr" transform="translate(250.00035,250.000028) rotate(0)"><path d="M250,0c-32.83,0-65.339,6.46644-95.671,19.0301-30.331,12.5637-57.8911,30.9786-81.1057,54.1932C50.0086,96.438,31.5938,123.998,19.0301,154.329C6.46643,184.661,-0.000005,217.17,0,250h25.4866c0-29.483,5.8072-58.678,17.0901-85.918c11.2828-27.239,27.8204-51.989,48.6684-72.8369s45.5979-37.3855,72.8369-48.6684C191.322,31.2938,220.516,25.4866,250,25.4866L250,0Z" transform="translate(-250.00035,-250)" fill="url(#eigXeLHoQjY2-fill)" stroke-width="0"/></g><rect width="300" height="300" rx="0" ry="0" transform="matrix(.709949 0 0 0.759351 143.508 155.097)" fill="none"/><path d="M152.003,317.71837v-175.05237h175.31765v30.639h-146.68565v144.41337h-28.632Z" fill="url(#eigXeLHoQjY4-fill)" stroke-width="0"/><path d="M219.53,382.903v-171.404h175.31765v31.784h-143.02365v139.62h-32.294Z" fill="url(#eigXeLHoQjY5-fill)" stroke-width="0"/></svg>
