<svg width="33" height="33" viewBox="0 0 33 33" fill="none" xmlns="http://www.w3.org/2000/svg">
<path d="M30.25 8.25C30.25 9.34402 29.8154 10.3932 29.0418 11.1668C28.2682 11.9404 27.219 12.375 26.125 12.375C25.031 12.375 23.9818 11.9404 23.2082 11.1668C22.4346 10.3932 22 9.34402 22 8.25C22 7.15598 22.4346 6.10677 23.2082 5.33318C23.9818 4.5596 25.031 4.125 26.125 4.125C27.219 4.125 28.2682 4.5596 29.0418 5.33318C29.8154 6.10677 30.25 7.15598 30.25 8.25Z" fill="white"/>
<path fill-rule="evenodd" clip-rule="evenodd" d="M19.25 6.875H13.75C8.56488 6.875 5.97163 6.875 4.3615 8.4865C2.75 10.0966 2.75 12.6899 2.75 17.875C2.75 23.0601 2.75 25.6534 4.3615 27.2635C5.97163 28.875 8.56488 28.875 13.75 28.875H19.25C24.4351 28.875 27.0284 28.875 28.6385 27.2635C30.25 25.6534 30.25 23.0601 30.25 17.875C30.25 15.8771 30.25 14.2629 30.1579 12.9429C29.0367 13.9092 27.6052 14.4398 26.125 14.4375C25.4664 14.4375 24.8325 14.3344 24.2371 14.1446L22.3905 15.6846C21.1709 16.6994 20.1836 17.523 19.3105 18.084C18.403 18.6684 17.5189 19.0369 16.5 19.0369C15.4811 19.0369 14.597 18.667 13.6881 18.084C12.8164 17.523 11.8291 16.6994 10.6095 15.6846L7.59 13.1684C7.37977 12.9933 7.24768 12.7419 7.2228 12.4695C7.19791 12.1971 7.28227 11.9259 7.45731 11.7157C7.63236 11.5055 7.88374 11.3734 8.15618 11.3485C8.42861 11.3236 8.69977 11.408 8.91 11.583L11.8786 14.0566C13.1615 15.125 14.0511 15.8647 14.8046 16.3487C15.532 16.8162 16.0256 16.9744 16.5 16.9744C16.9744 16.9744 17.468 16.8176 18.1954 16.3487C18.9475 15.8647 19.8385 15.125 21.1214 14.0566L22.2764 13.0941C21.3616 12.37 20.6706 11.4015 20.2834 10.3008C19.8963 9.2002 19.8288 8.01241 20.0888 6.875H19.25Z" fill="white"/>
</svg>
