<svg width="104" height="104" viewBox="0 0 104 104" fill="none" xmlns="http://www.w3.org/2000/svg">
<g filter="url(#filter0_d_111_536)">
<g filter="url(#filter1_d_111_536)">
<circle cx="52" cy="48" r="32" fill="#F3B161"/>
</g>
<path d="M62.5013 53.8334V43.3334H46.168V53.8334H62.5013ZM62.5013 37.5001C63.1201 37.5001 63.7136 37.7459 64.1512 38.1835C64.5888 38.6211 64.8346 39.2146 64.8346 39.8334V53.8334C64.8346 54.4523 64.5888 55.0457 64.1512 55.4833C63.7136 55.9209 63.1201 56.1667 62.5013 56.1667H46.168C45.5491 56.1667 44.9556 55.9209 44.5181 55.4833C44.0805 55.0457 43.8346 54.4523 43.8346 53.8334V39.8334C43.8346 39.2146 44.0805 38.6211 44.5181 38.1835C44.9556 37.7459 45.5491 37.5001 46.168 37.5001H47.3346V35.1667H49.668V37.5001H59.0013V35.1667H61.3346V37.5001H62.5013ZM41.5013 58.5001H57.8346V60.8334H41.5013C40.8825 60.8334 40.289 60.5876 39.8514 60.15C39.4138 59.7124 39.168 59.1189 39.168 58.5001V44.5001H41.5013V58.5001ZM60.168 51.5001H55.5013V46.8334H60.168V51.5001Z" fill="white"/>
</g>
<defs>
<filter id="filter0_d_111_536" x="16" y="16" width="72" height="72" filterUnits="userSpaceOnUse" color-interpolation-filters="sRGB">
<feFlood flood-opacity="0" result="BackgroundImageFix"/>
<feColorMatrix in="SourceAlpha" type="matrix" values="0 0 0 0 0 0 0 0 0 0 0 0 0 0 0 0 0 0 127 0" result="hardAlpha"/>
<feOffset dy="4"/>
<feGaussianBlur stdDeviation="2"/>
<feComposite in2="hardAlpha" operator="out"/>
<feColorMatrix type="matrix" values="0 0 0 0 0 0 0 0 0 0 0 0 0 0 0 0 0 0 0.25 0"/>
<feBlend mode="normal" in2="BackgroundImageFix" result="effect1_dropShadow_111_536"/>
<feBlend mode="normal" in="SourceGraphic" in2="effect1_dropShadow_111_536" result="shape"/>
</filter>
<filter id="filter1_d_111_536" x="0" y="0" width="104" height="104" filterUnits="userSpaceOnUse" color-interpolation-filters="sRGB">
<feFlood flood-opacity="0" result="BackgroundImageFix"/>
<feColorMatrix in="SourceAlpha" type="matrix" values="0 0 0 0 0 0 0 0 0 0 0 0 0 0 0 0 0 0 127 0" result="hardAlpha"/>
<feOffset dy="4"/>
<feGaussianBlur stdDeviation="10"/>
<feComposite in2="hardAlpha" operator="out"/>
<feColorMatrix type="matrix" values="0 0 0 0 0.952941 0 0 0 0 0.694118 0 0 0 0 0.380392 0 0 0 0.5 0"/>
<feBlend mode="normal" in2="BackgroundImageFix" result="effect1_dropShadow_111_536"/>
<feBlend mode="normal" in="SourceGraphic" in2="effect1_dropShadow_111_536" result="shape"/>
</filter>
</defs>
</svg>
