<svg width="194" height="19" viewBox="0 0 194 19" fill="none" xmlns="http://www.w3.org/2000/svg">
<path d="M0.464 18V1.2H12.32V4.344H3.992V8.232H12.152V11.328H3.992V18H0.464ZM12.5983 18L19.3663 1.2H23.0863L29.9263 18H26.0383L24.9583 15.24H17.5423L16.4863 18H12.5983ZM18.6703 12.024H23.8303L21.2623 5.256H21.2143L18.6703 12.024ZM44.957 18H41.093L38.213 12.12H35.069V18H31.589V1.2H38.885C40.453 1.2 41.789 1.696 42.893 2.688C44.013 3.664 44.573 4.992 44.573 6.672C44.573 7.824 44.293 8.824 43.733 9.672C43.173 10.504 42.429 11.136 41.501 11.568L44.957 18ZM35.069 4.296V9.096H38.525C39.277 9.096 39.885 8.88 40.349 8.448C40.813 8 41.045 7.424 41.045 6.72C41.045 6 40.813 5.416 40.349 4.968C39.885 4.52 39.277 4.296 38.525 4.296H35.069ZM54.4839 18.24C52.0839 18.24 50.0519 17.4 48.3879 15.72C46.7399 14.04 45.9159 12 45.9159 9.6C45.9159 7.2 46.7399 5.16 48.3879 3.48C50.0519 1.8 52.0839 0.959999 54.4839 0.959999C56.8679 0.959999 58.8839 1.8 60.5319 3.48C62.1959 5.16 63.0279 7.2 63.0279 9.6C63.0279 12 62.1959 14.04 60.5319 15.72C58.8839 17.4 56.8679 18.24 54.4839 18.24ZM54.4599 14.784C55.8839 14.784 57.0759 14.288 58.0359 13.296C59.0119 12.288 59.4999 11.056 59.4999 9.6C59.4999 8.144 59.0119 6.92 58.0359 5.928C57.0759 4.92 55.8839 4.416 54.4599 4.416C53.0519 4.416 51.8599 4.92 50.8839 5.928C49.9239 6.92 49.4439 8.144 49.4439 9.6C49.4439 11.056 49.9239 12.288 50.8839 13.296C51.8599 14.288 53.0519 14.784 54.4599 14.784ZM70.9747 18V1.2H81.7267V2.328H72.2227V9.12H81.5347V10.248H72.2227V18H70.9747ZM94.0976 16.464C92.9136 17.664 91.4576 18.264 89.7296 18.264C88.0016 18.264 86.5376 17.664 85.3376 16.464C84.1536 15.264 83.5616 13.8 83.5616 12.072C83.5616 10.328 84.1536 8.856 85.3376 7.656C86.5376 6.44 88.0016 5.832 89.7296 5.832C91.4576 5.832 92.9136 6.44 94.0976 7.656C95.2976 8.856 95.8976 10.328 95.8976 12.072C95.8976 13.8 95.2976 15.264 94.0976 16.464ZM86.2016 15.672C87.1616 16.648 88.3376 17.136 89.7296 17.136C91.1216 17.136 92.2896 16.648 93.2336 15.672C94.1936 14.68 94.6736 13.48 94.6736 12.072C94.6736 10.648 94.1936 9.448 93.2336 8.472C92.2896 7.48 91.1216 6.984 89.7296 6.984C88.3376 6.984 87.1616 7.48 86.2016 8.472C85.2576 9.448 84.7856 10.648 84.7856 12.072C84.7856 13.48 85.2576 14.68 86.2016 15.672ZM103.236 18.144C101.78 18.144 100.58 17.648 99.6356 16.656C98.7076 15.648 98.2436 14.16 98.2436 12.192V6.12H99.4436V12.12C99.4436 13.8 99.8196 15.048 100.572 15.864C101.324 16.664 102.252 17.064 103.356 17.064C104.636 17.064 105.652 16.632 106.404 15.768C107.172 14.888 107.556 13.656 107.556 12.072V6.12H108.756V18H107.556V15.576H107.508C107.108 16.376 106.532 17.008 105.78 17.472C105.044 17.92 104.196 18.144 103.236 18.144ZM112.03 18V6.12H113.23V8.616C114.078 6.856 115.518 5.976 117.55 5.976C119.006 5.976 120.198 6.48 121.126 7.488C122.07 8.48 122.542 9.96 122.542 11.928V18H121.342V12C121.342 10.32 120.966 9.08 120.214 8.28C119.462 7.464 118.534 7.056 117.43 7.056C116.15 7.056 115.126 7.496 114.358 8.376C113.606 9.24 113.23 10.464 113.23 12.048V18H112.03ZM130.713 18.144C129.065 18.144 127.673 17.56 126.537 16.392C125.417 15.208 124.857 13.768 124.857 12.072C124.857 10.36 125.417 8.92 126.537 7.752C127.673 6.568 129.065 5.976 130.713 5.976C131.881 5.976 132.905 6.248 133.785 6.792C134.665 7.336 135.345 8.072 135.825 9V-1.43051e-06H137.025V18H135.825V15.144C135.345 16.056 134.665 16.784 133.785 17.328C132.905 17.872 131.881 18.144 130.713 18.144ZM130.953 17.064C132.329 17.064 133.481 16.584 134.409 15.624C135.353 14.648 135.825 13.464 135.825 12.072C135.825 10.68 135.353 9.496 134.409 8.52C133.481 7.544 132.329 7.056 130.953 7.056C129.561 7.056 128.393 7.544 127.449 8.52C126.521 9.496 126.057 10.68 126.057 12.072C126.057 13.464 126.521 14.648 127.449 15.624C128.393 16.584 129.561 17.064 130.953 17.064ZM145.385 18.144C143.753 18.144 142.369 17.552 141.233 16.368C140.113 15.184 139.553 13.752 139.553 12.072C139.553 10.36 140.113 8.92 141.233 7.752C142.353 6.568 143.737 5.976 145.385 5.976C146.569 5.976 147.601 6.248 148.481 6.792C149.361 7.336 150.041 8.072 150.521 9V6.12H151.721V18H150.521V15.144C150.041 16.056 149.361 16.784 148.481 17.328C147.601 17.872 146.569 18.144 145.385 18.144ZM142.145 15.624C143.089 16.584 144.249 17.064 145.625 17.064C147.001 17.064 148.161 16.584 149.105 15.624C150.049 14.648 150.521 13.464 150.521 12.072C150.521 10.68 150.049 9.496 149.105 8.52C148.161 7.544 147.001 7.056 145.625 7.056C144.249 7.056 143.089 7.544 142.145 8.52C141.201 9.496 140.729 10.68 140.729 12.072C140.729 13.464 141.201 14.648 142.145 15.624ZM160.057 18.048C159.097 18.048 158.321 17.784 157.729 17.256C157.137 16.712 156.84 15.928 156.84 14.904V7.2H153.841V6.12H156.84V2.664H158.041V6.12H161.473V7.2H158.041V14.712C158.041 15.48 158.241 16.048 158.641 16.416C159.057 16.768 159.601 16.944 160.273 16.944C160.657 16.944 161.137 16.872 161.713 16.728L161.881 17.76C161.257 17.952 160.649 18.048 160.057 18.048ZM165.034 3.456C164.826 3.456 164.642 3.376 164.482 3.216C164.338 3.056 164.266 2.864 164.266 2.64C164.266 2.432 164.338 2.256 164.482 2.112C164.642 1.952 164.826 1.872 165.034 1.872C165.258 1.872 165.45 1.952 165.61 2.112C165.77 2.256 165.85 2.432 165.85 2.64C165.85 2.864 165.77 3.056 165.61 3.216C165.45 3.376 165.258 3.456 165.034 3.456ZM164.458 18V6.12H165.634V18H164.458ZM178.66 16.464C177.476 17.664 176.02 18.264 174.292 18.264C172.564 18.264 171.1 17.664 169.9 16.464C168.716 15.264 168.124 13.8 168.124 12.072C168.124 10.328 168.716 8.856 169.9 7.656C171.1 6.44 172.564 5.832 174.292 5.832C176.02 5.832 177.476 6.44 178.66 7.656C179.86 8.856 180.46 10.328 180.46 12.072C180.46 13.8 179.86 15.264 178.66 16.464ZM170.764 15.672C171.724 16.648 172.9 17.136 174.292 17.136C175.684 17.136 176.852 16.648 177.796 15.672C178.756 14.68 179.236 13.48 179.236 12.072C179.236 10.648 178.756 9.448 177.796 8.472C176.852 7.48 175.684 6.984 174.292 6.984C172.9 6.984 171.724 7.48 170.764 8.472C169.82 9.448 169.348 10.648 169.348 12.072C169.348 13.48 169.82 14.68 170.764 15.672ZM183.046 18V6.12H184.246V8.616C185.094 6.856 186.534 5.976 188.566 5.976C190.022 5.976 191.214 6.48 192.142 7.488C193.086 8.48 193.558 9.96 193.558 11.928V18H192.358V12C192.358 10.32 191.982 9.08 191.23 8.28C190.478 7.464 189.55 7.056 188.446 7.056C187.166 7.056 186.142 7.496 185.374 8.376C184.622 9.24 184.246 10.464 184.246 12.048V18H183.046Z" fill="#101536"/>
</svg>
