<svg width="33" height="33" viewBox="0 0 33 33" fill="none" xmlns="http://www.w3.org/2000/svg">
<path d="M16.5 16.5C17.2562 16.5 17.9039 16.2305 18.4429 15.6915C18.9819 15.1525 19.2509 14.5053 19.25 13.75C19.25 12.9938 18.9805 12.3461 18.4415 11.8071C17.9025 11.2681 17.2553 10.9991 16.5 11C15.7437 11 15.0961 11.2695 14.5571 11.8085C14.0181 12.3475 13.7491 12.9947 13.75 13.75C13.75 14.5063 14.0195 15.1539 14.5585 15.6929C15.0975 16.2319 15.7447 16.5009 16.5 16.5ZM16.5 29.7344C16.3167 29.7344 16.1333 29.7 15.95 29.6313C15.7667 29.5625 15.6062 29.4708 15.4687 29.3563C12.1229 26.4 9.625 23.6555 7.975 21.1228C6.325 18.59 5.5 16.2241 5.5 14.025C5.5 10.5875 6.60596 7.84896 8.81787 5.80938C11.0298 3.76979 13.5905 2.75 16.5 2.75C19.4104 2.75 21.9716 3.76979 24.1835 5.80938C26.3954 7.84896 27.5009 10.5875 27.5 14.025C27.5 16.225 26.675 18.5914 25.025 21.1241C23.375 23.6569 20.8771 26.4009 17.5312 29.3563C17.3937 29.4708 17.2333 29.5625 17.05 29.6313C16.8667 29.7 16.6833 29.7344 16.5 29.7344Z" fill="white"/>
</svg>
