<svg width="27" height="27" viewBox="0 0 27 27" fill="none" xmlns="http://www.w3.org/2000/svg">
<path d="M2.25 23.625C1.93125 23.625 1.66388 23.517 1.44788 23.301C1.23188 23.085 1.12425 22.818 1.125 22.5C1.125 22.1813 1.233 21.9139 1.449 21.6979C1.665 21.4819 1.932 21.3743 2.25 21.375H24.75C25.0688 21.375 25.3361 21.483 25.5521 21.699C25.7681 21.915 25.8758 22.182 25.875 22.5C25.875 22.8188 25.767 23.0861 25.551 23.3021C25.335 23.5181 25.068 23.6258 24.75 23.625H2.25ZM4.5 20.25C3.88125 20.25 3.35138 20.0295 2.91038 19.5885C2.46938 19.1475 2.24925 18.618 2.25 18V5.625C2.25 5.00625 2.4705 4.47638 2.9115 4.03538C3.3525 3.59438 3.882 3.37425 4.5 3.375H22.5C23.1188 3.375 23.6486 3.5955 24.0896 4.0365C24.5306 4.4775 24.7508 5.007 24.75 5.625V18C24.75 18.6188 24.5295 19.1486 24.0885 19.5896C23.6475 20.0306 23.118 20.2508 22.5 20.25H4.5ZM4.5 18H22.5V5.625H4.5V18Z" fill="white"/>
</svg>
