<svg width="104" height="104" viewBox="0 0 104 104" fill="none" xmlns="http://www.w3.org/2000/svg">
<g filter="url(#filter0_d_111_520)">
<circle cx="52" cy="48" r="32" fill="#E76F95"/>
</g>
<path d="M64.2188 34.7812H38.7812C38.1679 34.7812 37.5797 35.0249 37.1461 35.4586C36.7124 35.8922 36.4688 36.4804 36.4688 37.0938V57.9062C36.4688 58.5196 36.7124 59.1078 37.1461 59.5414C37.5797 59.9751 38.1679 60.2188 38.7812 60.2188H40.7165C40.9354 60.2188 41.1497 60.1568 41.3347 60.0399C41.5197 59.923 41.6677 59.7559 41.7615 59.5582C42.3237 58.3712 43.2114 57.3681 44.3213 56.6657C45.4313 55.9633 46.7178 55.5904 48.0312 55.5904C49.3447 55.5904 50.6313 55.9633 51.7412 56.6657C52.8511 57.3681 53.7388 58.3712 54.301 59.5582C54.3948 59.7559 54.5428 59.923 54.7278 60.0399C54.9128 60.1568 55.1271 60.2188 55.346 60.2188H64.2188C64.8321 60.2188 65.4203 59.9751 65.8539 59.5414C66.2876 59.1078 66.5312 58.5196 66.5312 57.9062V37.0938C66.5312 36.4804 66.2876 35.8922 65.8539 35.4586C65.4203 35.0249 64.8321 34.7812 64.2188 34.7812ZM44.5625 49.8125C44.5625 49.1264 44.7659 48.4558 45.1471 47.8854C45.5282 47.3149 46.07 46.8703 46.7038 46.6078C47.3376 46.3453 48.0351 46.2766 48.708 46.4104C49.3808 46.5442 49.9989 46.8746 50.484 47.3597C50.9691 47.8448 51.2995 48.4629 51.4333 49.1358C51.5672 49.8087 51.4985 50.5061 51.236 51.1399C50.9734 51.7738 50.5288 52.3155 49.9584 52.6967C49.388 53.0778 48.7173 53.2812 48.0312 53.2812C47.1113 53.2812 46.229 52.9158 45.5785 52.2653C44.928 51.6148 44.5625 50.7325 44.5625 49.8125ZM64.2188 57.9062H56.0426C55.0771 56.2462 53.6216 54.9255 51.8758 54.1253C52.751 53.346 53.3688 52.319 53.6471 51.1806C53.9254 50.0422 53.8512 48.846 53.4342 47.7508C53.0173 46.6555 52.2773 45.7128 51.3124 45.0477C50.3475 44.3826 49.2032 44.0264 48.0312 44.0264C46.8593 44.0264 45.715 44.3826 44.7501 45.0477C43.7852 45.7128 43.0452 46.6555 42.6283 47.7508C42.2113 48.846 42.1371 50.0422 42.4154 51.1806C42.6937 52.319 43.3115 53.346 44.1867 54.1253C42.4409 54.9255 40.9854 56.2462 40.0199 57.9062H38.7812V37.0938H64.2188V57.9062ZM41.0938 42.875V40.5625C41.0938 40.2558 41.2156 39.9617 41.4324 39.7449C41.6492 39.5281 41.9433 39.4062 42.25 39.4062H60.75C61.0567 39.4062 61.3508 39.5281 61.5676 39.7449C61.7844 39.9617 61.9062 40.2558 61.9062 40.5625V54.4375C61.9062 54.7442 61.7844 55.0383 61.5676 55.2551C61.3508 55.4719 61.0567 55.5938 60.75 55.5938H58.4375C58.1308 55.5938 57.8367 55.4719 57.6199 55.2551C57.4031 55.0383 57.2812 54.7442 57.2812 54.4375C57.2812 54.1308 57.4031 53.8367 57.6199 53.6199C57.8367 53.4031 58.1308 53.2812 58.4375 53.2812H59.5938V41.7188H43.4062V42.875C43.4062 43.1817 43.2844 43.4758 43.0676 43.6926C42.8508 43.9094 42.5567 44.0312 42.25 44.0312C41.9433 44.0312 41.6492 43.9094 41.4324 43.6926C41.2156 43.4758 41.0938 43.1817 41.0938 42.875Z" fill="white"/>
<defs>
<filter id="filter0_d_111_520" x="0" y="0" width="104" height="104" filterUnits="userSpaceOnUse" color-interpolation-filters="sRGB">
<feFlood flood-opacity="0" result="BackgroundImageFix"/>
<feColorMatrix in="SourceAlpha" type="matrix" values="0 0 0 0 0 0 0 0 0 0 0 0 0 0 0 0 0 0 127 0" result="hardAlpha"/>
<feOffset dy="4"/>
<feGaussianBlur stdDeviation="10"/>
<feComposite in2="hardAlpha" operator="out"/>
<feColorMatrix type="matrix" values="0 0 0 0 0.905882 0 0 0 0 0.435294 0 0 0 0 0.584314 0 0 0 0.5 0"/>
<feBlend mode="normal" in2="BackgroundImageFix" result="effect1_dropShadow_111_520"/>
<feBlend mode="normal" in="SourceGraphic" in2="effect1_dropShadow_111_520" result="shape"/>
</filter>
</defs>
</svg>
